# xmcd CD database file
#
# Track frame offsets:
#	150
#	14097
#	29482
#	43925
#	56182
#	70132
#	82962
#	94875
#	109025
#	122437
#	136482
#	150012
#	164942
#	178615
#	192200
#	206692
#	220880
#	233745
#	247797
#	263195
#	277672
#	290272
#	302860
#
# Disc length: 4238 seconds
#
# Revision: 0
# Processed by: cddbd v1.5.2PL0 Copyright (c) Steve Scherf et al.
# Submitted via: CDex 1.70beta2
#
DISCID=48108c17
DTITLE=Clarence Willia|ms - Dreaming the hours away
DYEAR=1900
DGENRE=Jazz
TTITLE0=Joe Jordan's Ten Sharps And Flats - Senegalese Stomp
TTITLE1=Joe Jordan's Ten Sharps And Flats - Morocco Blues
TTITLE2=Lucille Hegamin - Nobody Byt My Baby Is Getting My Love
TTITLE3=Lucille Hegamin - Senorita Mine
TTITLE4=Clarence William's Jazz Kings - Gravier Street Blues
TTITLE5=Clarence William's Jazz Kings - Candy Lips
TTITLE6=Clarence William's Jazz Kings - I'm Going Back To Botomland
TTITLE7=Clarence William's Jazz Kings - You'll Long For Me
TTITLE8=Clarence William's Jazz Kings - Dreaaming The Hours Away
TTITLE9=Clarence William's Jazz Kings - Close Fit Blues
TTITLE10=Clarence William's Jazz Kings - Sweet Emmalina
TTITLE11=Clarence William's Jazz Kings - Any Time
TTITLE12=Clarence William's Jazz Kings - Red River Blues
TTITLE13=Clarence William's Jazz Kings - I Need You
TTITLE14=Lizzi Miles - You're Such A Cruel Papa
TTITLE15=Lizzi Miles - My Dif'rent Kind Of Man
TTITLE16=Clarence William's Jazz Kings - The Keyboard Express
TTITLE17=Clarence William's Jazz Kings - Walk That Broad
TTITLE18=Ethel Waters - West End Blues
TTITLE19=Ethel Waters - Organ Grinder Blues
TTITLE20=Ethel Waters - Get Up Off Your Knees
TTITLE21=Irene Gibbons - I'm Busy And You Can't Come In
TTITLE22=Irene Gibbons - Jeanine I Dream Of Lilac Time
EXTD=
EXTT0=
EXTT1=
EXTT2=
EXTT3=
EXTT4=
EXTT5=
EXTT6=
EXTT7=
EXTT8=
EXTT9=
EXTT10=
EXTT11=
EXTT12=
EXTT13=
EXTT14=
EXTT15=
EXTT16=
EXTT17=
EXTT18=
EXTT19=
EXTT20=
EXTT21=
EXTT22=
PLAYORDER=
